<?xml version="1.0" standalone="no"?>
<!DOCTYPE svg PUBLIC "-//W3C//DTD SVG 1.1//EN" "http://www.w3.org/Graphics/SVG/1.1/DTD/svg11.dtd" >
<svg xmlns="http://www.w3.org/2000/svg" xmlns:xlink="http://www.w3.org/1999/xlink" version="1.1">
<metadata>
Created by FontForge 20201107 at Mon Feb 12 11:00:14 2024
 By 
</metadata>
<defs>
<font id="PingPongRegular" horiz-adv-x="843" >
  <font-face 
    font-family="PingPong"
    font-weight="400"
    font-stretch="normal"
    units-per-em="2048"
    panose-1="0 0 0 0 0 0 0 0 0 0"
    ascent="1638"
    descent="-410"
    x-height="1660"
    cap-height="1660"
    bbox="-12 -168 1187 1801"
    underline-thickness="0"
    underline-position="0"
    unicode-range="U+000A-F000"
  />
<missing-glyph horiz-adv-x="1079" 
d="M102 1434h875v-1434h-875v1434zM160 1393l379 -633l381 633h-760zM514 717l-369 614v-1231zM541 674l-379 -631h758zM565 717l371 -621v1239z" />
    <glyph glyph-name=".notdef" horiz-adv-x="1079" 
d="M102 1434h875v-1434h-875v1434zM160 1393l379 -633l381 633h-760zM514 717l-369 614v-1231zM541 674l-379 -631h758zM565 717l371 -621v1239z" />
    <glyph glyph-name=".null" horiz-adv-x="0" 
 />
    <glyph glyph-name=".null" horiz-adv-x="0" 
 />
    <glyph glyph-name="nonmarkingreturn" horiz-adv-x="682" 
 />
    <glyph glyph-name="LF" unicode="&#xa;" horiz-adv-x="0" 
 />
    <glyph glyph-name="controlCR" unicode="&#xd;" horiz-adv-x="0" 
 />
    <glyph glyph-name="space" unicode=" " horiz-adv-x="405" 
 />
    <glyph glyph-name="exclam" unicode="!" horiz-adv-x="419" 
d="M209 276q57 0 97.5 -40.5t40.5 -97.5t-40.5 -97.5t-97.5 -40.5t-97.5 40.5t-40.5 97.5t40.5 97.5t97.5 40.5zM194 1660h153v-1095q0 -43 -15 -74t-36 -45t-42 -22t-36 -8l-15 -1h-132v807v292q1 0 0 8t1.5 21t5.5 28t12 31t21.5 28.5t33.5 21t48 8.5h1z" />
    <glyph glyph-name="quotedbl" unicode="&#x22;" 
d="M33 1524v66q0 87 61.5 149t148.5 62h66v-277h-276zM534 1524v66q0 87 61.5 149t148.5 62h66v-277h-276z" />
    <glyph glyph-name="quotedbl" unicode="&#x201d;" 
d="M33 1524v66q0 87 61.5 149t148.5 62h66v-277h-276zM534 1524v66q0 87 61.5 149t148.5 62h66v-277h-276z" />
    <glyph glyph-name="quotedbl" unicode="&#x201c;" 
d="M33 1524v66q0 87 61.5 149t148.5 62h66v-277h-276zM534 1524v66q0 87 61.5 149t148.5 62h66v-277h-276z" />
    <glyph glyph-name="quotesingle" unicode="'" horiz-adv-x="348" 
d="M35 1491v66q0 87 62 148.5t149 61.5h66v-276h-277z" />
    <glyph glyph-name="quotesingle" unicode="&#x2019;" horiz-adv-x="348" 
d="M35 1491v66q0 87 62 148.5t149 61.5h66v-276h-277z" />
    <glyph glyph-name="quotesingle" unicode="&#x2018;" horiz-adv-x="348" 
d="M35 1491v66q0 87 62 148.5t149 61.5h66v-276h-277z" />
    <glyph glyph-name="comma" unicode="," horiz-adv-x="337" 
d="M307 108v-66q0 -87 -61.5 -148.5t-148.5 -61.5h-66v276h276z" />
    <glyph glyph-name="period" unicode="." horiz-adv-x="352" 
d="M176 276q57 0 97.5 -40.5t40.5 -97.5t-40.5 -97.5t-97.5 -40.5t-97.5 40.5t-40.5 97.5t40.5 97.5t97.5 40.5z" />
    <glyph glyph-name="zero" unicode="0" horiz-adv-x="915" 
d="M700 1659q11 -1 23.5 -2.5t35 -10.5t39.5 -24t30 -44t13 -68v-680v-680q0 -38 -12.5 -67.5t-29 -44t-38.5 -24t-35 -12t-24 -2.5h-1h-2h-2h-132h-216h-131h-3h-2q-11 0 -24.5 2.5t-35.5 12t-38.5 24t-29 44t-12.5 67.5v1360q0 39 13 68t30 44t39.5 24t35 10.5t23.5 2.5h4
h131v1h216v-1h132h3zM565 97v1466h-34h-37h-111h-34v-1466h34h111h37h34z" />
    <glyph glyph-name="one" unicode="1" horiz-adv-x="905" 
d="M829 1510v-1179v-331h-123h-153v1563h-71h-71v-199h-153q-37 0 -63 15t-37.5 36.5t-17 43t-5.5 36.5v15q0 40 13 69.5t30.5 44t40 23.5t35 10.5t22.5 1.5l3 1h405q1 -1 3 -1q14 0 31.5 -4t45.5 -17t46.5 -46t18.5 -82z" />
    <glyph glyph-name="two" unicode="2" horiz-adv-x="1044" 
d="M784 296q37 0 63 -15t37.5 -36.5t17 -43t5.5 -36.5v-15q0 -40 -13 -69.5t-30.5 -44.5t-39.5 -23.5t-35 -10.5t-23 -2h-123h-435h-3q-10 0 -23 2t-35 10.5t-39.5 23.5t-30.5 44.5t-13 69.5v630v16t5.5 35t17 44t37.5 35t63 16h295v637h-71h-71v-199h-153q-37 0 -63 15
t-37.5 36.5t-17 43t-5.5 36.5v15q0 40 13 69.5t30.5 44t40 23.5t35 10.5t22.5 1.5l3 1h405q1 -1 3 -1q14 0 31.5 -4t45.5 -17t46.5 -46t18.5 -82v-534v-16t-5.5 -35t-17 -44t-37.5 -35t-63 -16h-153h-142v-733l71 -1l220 1v199h153z" />
    <glyph glyph-name="three" unicode="3" horiz-adv-x="974" 
d="M761 1659q12 0 24.5 -2.5t34.5 -11.5t38.5 -24t29 -44t12.5 -67v-1360q0 -39 -13 -68.5t-30 -44t-39.5 -23.5t-35 -11t-23.5 -3h-3h-132h-345h-3q-10 0 -23 2t-35 10.5t-39.5 23.5t-30.5 44.5t-13 69.5v16t5.5 35t17 44t37.5 35t63 16h153v-199h15h117h10h37h34v636h-141
v97h141v733h-108h-26h-30v-199h-153q-37 0 -63 15t-37.5 36.5t-17 43t-5.5 36.5v15q0 49 18.5 82t46.5 46t45.5 17t31.5 4l3 1h427q1 -1 3 -1h1h1z" />
    <glyph glyph-name="four" unicode="4" horiz-adv-x="808" 
d="M600 1660h132v-964v-319v-377h-277v830h-141h-153q-37 0 -63 15t-37.5 36.5t-17 43t-5.5 36.5v15v534q0 40 13 69.5t30.5 44t40 23.5t35 10.5t22.5 1.5l3 1h132v-734h141h1v39v11v20v514q0 40 13 69.5t30.5 44t40 23.5t35 10.5t22.5 1.5z" />
    <glyph glyph-name="five" unicode="5" horiz-adv-x="1036" 
d="M856 1050q37 0 63 -15t37.5 -36.5t17 -43t5.5 -36.5v-15v-754q0 -40 -13 -69.5t-30.5 -44.5t-40 -23.5t-35.5 -10.5t-23 -2h-3h-434h-124q-10 0 -23 2t-35 10.5t-39.5 23.5t-30.5 44.5t-13 69.5v16t5.5 35t17 44t37.5 35t63 16h153v-199h221h70v856h-141h-153
q-37 0 -63 15t-37.5 36.5t-17 43t-5.5 36.5v15v411q0 40 13 69.5t30.5 44t40 23.5t35 10.5t22.5 1.5l3 1h422v-97h-290v-513h141h154z" />
    <glyph glyph-name="six" unicode="6" horiz-adv-x="833" 
d="M646 1364h-153v199h-70h-71v-637h141h153q37 0 63 -15t37.5 -36.5t17 -43t5.5 -36.5v-15v-630q0 -40 -13 -69.5t-30.5 -44.5t-39.5 -23.5t-35 -10.5t-23 -2h-3h-549v965v11v204v330q0 40 13 69.5t30.5 44t40 23.5t35 10.5t22.5 1.5l3 1h405q1 -1 3 -1q10 0 22.5 -1.5
t35 -10.5t40 -23.5t30.5 -44t13 -69.5v-16t-5.5 -35t-17 -44t-37.5 -35t-63 -16zM493 830h-141v-733l71 -1l70 1v733z" />
    <glyph glyph-name="seven" unicode="7" horiz-adv-x="1103" 
d="M1026 1510v-1179v-331h-123h-153v1563h-268h-71v-199h-153q-37 0 -63 15t-37.5 36.5t-17 43t-5.5 36.5v15q0 40 13 69.5t30.5 44t40 23.5t35 10.5t22.5 1.5l3 1h603q1 -1 3 -1q10 0 22.5 -1.5t35 -10.5t40 -23.5t30.5 -44t13 -69.5z" />
    <glyph glyph-name="eight" unicode="8" horiz-adv-x="841" 
d="M626 1659q11 -1 23.5 -2.5t35 -10.5t39.5 -24t30 -44t13 -68v-680v-680q0 -38 -12.5 -67.5t-29 -44t-38.5 -24t-35 -12t-24 -2.5h-1h-2h-2h-132h-142h-131h-3h-2q-11 0 -24.5 2.5t-35.5 12t-38.5 24t-29 44t-12.5 67.5v1360q0 39 13 68t30 44t39.5 24t35 10.5t23.5 2.5h4
h131v1h142v-1h132h3zM491 97v636h-142v-636h34h37h37h34zM491 830v733h-34h-37h-37h-34v-733h142z" />
    <glyph glyph-name="nine" unicode="9" horiz-adv-x="833" 
d="M758 1660v-965v-11v-205v-329q0 -40 -13 -69.5t-30.5 -44.5t-40 -23.5t-35.5 -10.5t-23 -2h-3h-405h-3q-10 0 -23 2t-35 10.5t-39.5 23.5t-30.5 44.5t-13 69.5v16t5.5 35t17 44t37.5 35t63 16h153v-199h71h71v636h-142h-153q-37 0 -63 15t-37.5 36.5t-17 43t-5.5 36.5v15
v631q0 40 13 69.5t30.5 44.5t39.5 23.5t35 10.5t23 2h3h550zM340 830h142v733h-71h-71v-733z" />
    <glyph glyph-name="colon" unicode=":" horiz-adv-x="366" 
d="M183 276q57 0 97.5 -40.5t40.5 -97.5t-40.5 -97.5t-97.5 -40.5t-97.5 40.5t-40.5 97.5t40.5 97.5t97.5 40.5zM183 1098q57 0 97.5 -41t40.5 -98t-40.5 -97.5t-97.5 -40.5t-97.5 40.5t-40.5 97.5t40.5 98t97.5 41z" />
    <glyph glyph-name="semicolon" unicode=";" horiz-adv-x="370" 
d="M188 1098q57 0 97.5 -41t40.5 -98t-40.5 -97.5t-97.5 -40.5t-97.5 40.5t-40.5 97.5t40.5 98t97.5 41zM326 276v-66q0 -87 -61.5 -148.5t-148.5 -61.5h-66v276h276z" />
    <glyph glyph-name="question" unicode="?" horiz-adv-x="808" 
d="M451 276q57 0 97.5 -40.5t40.5 -97.5t-40.5 -97.5t-97.5 -40.5t-97.5 40.5t-40.5 97.5t40.5 97.5t97.5 40.5zM675 965h-221v-550h-98h-3q-8 0 -17.5 1.5t-26 8t-29.5 17.5t-23 33t-10 52v401v11.5t4.5 26.5t13 33t28 26t47.5 12h114h107v550h-53h-166v-149h-115
q-28 0 -47.5 11t-28 27t-12.5 32.5t-4 27.5v11q0 30 10 52.5t23 33.5t29.5 17.5t26.5 8t17 1.5h92h326h3q7 0 17 -1.5t26.5 -8t29.5 -17.5t23 -33.5t10 -52.5v-473v-11.5t-4.5 -26.5t-13 -33t-28 -26t-47.5 -12z" />
    <glyph glyph-name="A" unicode="A" 
d="M769 1286h1v-1286h-277v733h-141v-733h-276v1660h549q6 0 15.5 -0.5t34.5 -8.5t44 -22t34.5 -45t15.5 -74v-224zM493 830v733h-141v-733h141z" />
    <glyph glyph-name="A" unicode="&#xc5;" 
d="M769 1286h1v-1286h-277v733h-141v-733h-276v1660h549q6 0 15.5 -0.5t34.5 -8.5t44 -22t34.5 -45t15.5 -74v-224zM493 830v733h-141v-733h141z" />
    <glyph glyph-name="A" unicode="&#xc4;" 
d="M769 1286h1v-1286h-277v733h-141v-733h-276v1660h549q6 0 15.5 -0.5t34.5 -8.5t44 -22t34.5 -45t15.5 -74v-224zM493 830v733h-141v-733h141z" />
    <glyph glyph-name="A" unicode="&#xc3;" 
d="M769 1286h1v-1286h-277v733h-141v-733h-276v1660h549q6 0 15.5 -0.5t34.5 -8.5t44 -22t34.5 -45t15.5 -74v-224zM493 830v733h-141v-733h141z" />
    <glyph glyph-name="A" unicode="&#xc2;" 
d="M769 1286h1v-1286h-277v733h-141v-733h-276v1660h549q6 0 15.5 -0.5t34.5 -8.5t44 -22t34.5 -45t15.5 -74v-224zM493 830v733h-141v-733h141z" />
    <glyph glyph-name="A" unicode="&#xc1;" 
d="M769 1286h1v-1286h-277v733h-141v-733h-276v1660h549q6 0 15.5 -0.5t34.5 -8.5t44 -22t34.5 -45t15.5 -74v-224zM493 830v733h-141v-733h141z" />
    <glyph glyph-name="A" unicode="&#xc0;" 
d="M769 1286h1v-1286h-277v733h-141v-733h-276v1660h549q6 0 15.5 -0.5t34.5 -8.5t44 -22t34.5 -45t15.5 -74v-224zM493 830v733h-141v-733h141z" />
    <glyph glyph-name="B" unicode="B" 
d="M629 1659q11 -1 23.5 -2.5t35 -10.5t39 -24t29.5 -44t13 -68v-1360q0 -38 -12.5 -67.5t-29 -44t-38.5 -24t-35 -12t-24 -2.5h-1h-4h-273h-132h-2h-142v1659h140v1h4h273v-1h132h4zM493 97v636h-141v-636h33h108zM493 830v733h-33h-108v-733h141z" />
    <glyph glyph-name="C" unicode="C" horiz-adv-x="555" 
d="M349 1563v-1466h34h164v-97h-198h-131h-4q-11 1 -23.5 3t-35 11t-39.5 23.5t-30 44t-13 68.5v1360q0 47 17.5 79.5t44.5 46t44.5 18t33.5 5.5l1 1h4h273l56 -1v-96h-90h-108z" />
    <glyph glyph-name="C" unicode="&#xc7;" horiz-adv-x="555" 
d="M349 1563v-1466h34h164v-97h-198h-131h-4q-11 1 -23.5 3t-35 11t-39.5 23.5t-30 44t-13 68.5v1360q0 47 17.5 79.5t44.5 46t44.5 18t33.5 5.5l1 1h4h273l56 -1v-96h-90h-108z" />
    <glyph glyph-name="D" unicode="D" 
d="M629 1659q11 -1 23.5 -2.5t35 -10.5t39 -24t29.5 -44t13 -68v-1360q0 -38 -12.5 -67.5t-29 -44t-38.5 -24t-35 -12t-24 -2.5h-1h-4h-273h-132h-2h-142v1659h140v1h4h273v-1h132h4zM493 97v1466h-33h-108v-1466h33h108z" />
    <glyph glyph-name="E" unicode="E" horiz-adv-x="561" 
d="M457 1563h-108v-733h142v-97h-142v-636h34h164v-97h-198h-131h-4q-11 1 -23.5 3t-35 11t-39.5 23.5t-30 44t-13 68.5v1360q0 47 17.5 79.5t44.5 46t44.5 18t33.5 5.5l1 1h4h273h56v-97h-90z" />
    <glyph glyph-name="E" unicode="&#xcb;" horiz-adv-x="561" 
d="M457 1563h-108v-733h142v-97h-142v-636h34h164v-97h-198h-131h-4q-11 1 -23.5 3t-35 11t-39.5 23.5t-30 44t-13 68.5v1360q0 47 17.5 79.5t44.5 46t44.5 18t33.5 5.5l1 1h4h273h56v-97h-90z" />
    <glyph glyph-name="E" unicode="&#xca;" horiz-adv-x="561" 
d="M457 1563h-108v-733h142v-97h-142v-636h34h164v-97h-198h-131h-4q-11 1 -23.5 3t-35 11t-39.5 23.5t-30 44t-13 68.5v1360q0 47 17.5 79.5t44.5 46t44.5 18t33.5 5.5l1 1h4h273h56v-97h-90z" />
    <glyph glyph-name="E" unicode="&#xc9;" horiz-adv-x="561" 
d="M457 1563h-108v-733h142v-97h-142v-636h34h164v-97h-198h-131h-4q-11 1 -23.5 3t-35 11t-39.5 23.5t-30 44t-13 68.5v1360q0 47 17.5 79.5t44.5 46t44.5 18t33.5 5.5l1 1h4h273h56v-97h-90z" />
    <glyph glyph-name="E" unicode="&#xc8;" horiz-adv-x="561" 
d="M457 1563h-108v-733h142v-97h-142v-636h34h164v-97h-198h-131h-4q-11 1 -23.5 3t-35 11t-39.5 23.5t-30 44t-13 68.5v1360q0 47 17.5 79.5t44.5 46t44.5 18t33.5 5.5l1 1h4h273h56v-97h-90z" />
    <glyph glyph-name="F" unicode="F" horiz-adv-x="555" 
d="M349 1563v-733h142v-97h-142v-733h-276v1510q0 47 17.5 79.5t44.5 46t44.5 18t33.5 5.5l1 1h4h273l56 -1v-96h-90h-108z" />
    <glyph glyph-name="G" unicode="G" horiz-adv-x="798" 
d="M557 830h210v-680q0 -38 -12.5 -67.5t-29 -44t-38.5 -24t-35 -12t-24 -2.5h-1h-1h-3h-274h-131h-4q-11 1 -23.5 3t-35 11t-39.5 23.5t-30 44t-13 68.5v1360q0 47 17.5 79.5t44.5 46t44.5 18t33.5 5.5l1 1h4h329v-97h-90h-108v-1466h34h108v636h-75v97h33h42h29h37z" />
    <glyph glyph-name="H" unicode="H" horiz-adv-x="845" 
d="M493 1660h277v-1660h-277v733h-141v-733h-276v1660h276v-830h141v830z" />
    <glyph glyph-name="I" unicode="I" horiz-adv-x="428" 
d="M352 0h-276v1660h276v-1660z" />
    <glyph glyph-name="I" unicode="&#xcf;" horiz-adv-x="428" 
d="M352 0h-276v1660h276v-1660z" />
    <glyph glyph-name="I" unicode="&#xce;" horiz-adv-x="428" 
d="M352 0h-276v1660h276v-1660z" />
    <glyph glyph-name="I" unicode="&#xcd;" horiz-adv-x="428" 
d="M352 0h-276v1660h276v-1660z" />
    <glyph glyph-name="I" unicode="&#xcc;" horiz-adv-x="428" 
d="M352 0h-276v1660h276v-1660z" />
    <glyph glyph-name="J" unicode="J" horiz-adv-x="778" 
d="M229 1660h474v-1510q0 -39 -13 -68.5t-30 -44t-39.5 -23.5t-35 -11t-23.5 -3h-3h-132h-273h-4h-1q-11 0 -24.5 2.5t-35.5 12t-38.5 24t-29 44t-12.5 67.5v377h210h37h29v-430h108h34v1466h-108h-90v97z" />
    <glyph glyph-name="K" unicode="K" horiz-adv-x="819" 
d="M769 500h1v-500h-153q-37 0 -63 15t-37.5 36.5t-17 43t-5.5 36.5v15v184h-1v500h-141v-830h-276v1660h276v-734h67v404v184v16t5.5 35t17 44t37.5 35t63 16h153v-501v-183v-15.5t-5.5 -34.5t-16.5 -44t-36 -35t-61 -17h70q37 0 63 -15t37.5 -36.5t17 -43t5.5 -36.5v-15
v-184z" />
    <glyph glyph-name="L" unicode="L" horiz-adv-x="544" 
d="M457 97h90v-97h-56h-273h-4h-1q-11 0 -24.5 2.5t-35.5 12t-38.5 24t-29 44t-12.5 67.5v1510h276v-1563h108z" />
    <glyph glyph-name="M" unicode="M" horiz-adv-x="1261" 
d="M1043 1660q6 0 15.5 -0.5t34.5 -8.5t44 -22t34.5 -45t15.5 -74v-1510h-276v1563h-141v-1563h-147h-130v1563h-141v-1563h-276v1660h967z" />
    <glyph glyph-name="N" unicode="N" 
d="M625 1660q6 0 15.5 -0.5t34.5 -8.5t44 -22t34.5 -45t15.5 -74v-1510h-276v1563h-141v-1563h-276v1660h549z" />
    <glyph glyph-name="N" unicode="&#xd1;" 
d="M625 1660q6 0 15.5 -0.5t34.5 -8.5t44 -22t34.5 -45t15.5 -74v-1510h-276v1563h-141v-1563h-276v1660h549z" />
    <glyph glyph-name="O" unicode="O" horiz-adv-x="841" 
d="M626 1659q11 -1 23.5 -2.5t35 -10.5t39.5 -24t30 -44t13 -68v-1360q0 -38 -12.5 -67.5t-29 -44t-38.5 -24t-35 -12t-24 -2.5h-5h-274h-131h-4q-11 1 -23.5 3t-35 11t-39.5 23.5t-30 44t-13 68.5v1360q0 47 17.5 79.5t44.5 46t44.5 18t33.5 5.5l1 1h4l273 -1h132h3z
M491 97v1466h-142v-1466h142z" />
    <glyph glyph-name="O" unicode="&#xd8;" horiz-adv-x="841" 
d="M626 1659q11 -1 23.5 -2.5t35 -10.5t39.5 -24t30 -44t13 -68v-1360q0 -38 -12.5 -67.5t-29 -44t-38.5 -24t-35 -12t-24 -2.5h-5h-274h-131h-4q-11 1 -23.5 3t-35 11t-39.5 23.5t-30 44t-13 68.5v1360q0 47 17.5 79.5t44.5 46t44.5 18t33.5 5.5l1 1h4l273 -1h132h3z
M491 97v1466h-142v-1466h142z" />
    <glyph glyph-name="O" unicode="&#xd6;" horiz-adv-x="841" 
d="M626 1659q11 -1 23.5 -2.5t35 -10.5t39.5 -24t30 -44t13 -68v-1360q0 -38 -12.5 -67.5t-29 -44t-38.5 -24t-35 -12t-24 -2.5h-5h-274h-131h-4q-11 1 -23.5 3t-35 11t-39.5 23.5t-30 44t-13 68.5v1360q0 47 17.5 79.5t44.5 46t44.5 18t33.5 5.5l1 1h4l273 -1h132h3z
M491 97v1466h-142v-1466h142z" />
    <glyph glyph-name="O" unicode="&#xd5;" horiz-adv-x="841" 
d="M626 1659q11 -1 23.5 -2.5t35 -10.5t39.5 -24t30 -44t13 -68v-1360q0 -38 -12.5 -67.5t-29 -44t-38.5 -24t-35 -12t-24 -2.5h-5h-274h-131h-4q-11 1 -23.5 3t-35 11t-39.5 23.5t-30 44t-13 68.5v1360q0 47 17.5 79.5t44.5 46t44.5 18t33.5 5.5l1 1h4l273 -1h132h3z
M491 97v1466h-142v-1466h142z" />
    <glyph glyph-name="O" unicode="&#xd4;" horiz-adv-x="841" 
d="M626 1659q11 -1 23.5 -2.5t35 -10.5t39.5 -24t30 -44t13 -68v-1360q0 -38 -12.5 -67.5t-29 -44t-38.5 -24t-35 -12t-24 -2.5h-5h-274h-131h-4q-11 1 -23.5 3t-35 11t-39.5 23.5t-30 44t-13 68.5v1360q0 47 17.5 79.5t44.5 46t44.5 18t33.5 5.5l1 1h4l273 -1h132h3z
M491 97v1466h-142v-1466h142z" />
    <glyph glyph-name="O" unicode="&#xd3;" horiz-adv-x="841" 
d="M626 1659q11 -1 23.5 -2.5t35 -10.5t39.5 -24t30 -44t13 -68v-1360q0 -38 -12.5 -67.5t-29 -44t-38.5 -24t-35 -12t-24 -2.5h-5h-274h-131h-4q-11 1 -23.5 3t-35 11t-39.5 23.5t-30 44t-13 68.5v1360q0 47 17.5 79.5t44.5 46t44.5 18t33.5 5.5l1 1h4l273 -1h132h3z
M491 97v1466h-142v-1466h142z" />
    <glyph glyph-name="O" unicode="&#xd2;" horiz-adv-x="841" 
d="M626 1659q11 -1 23.5 -2.5t35 -10.5t39.5 -24t30 -44t13 -68v-1360q0 -38 -12.5 -67.5t-29 -44t-38.5 -24t-35 -12t-24 -2.5h-5h-274h-131h-4q-11 1 -23.5 3t-35 11t-39.5 23.5t-30 44t-13 68.5v1360q0 47 17.5 79.5t44.5 46t44.5 18t33.5 5.5l1 1h4l273 -1h132h3z
M491 97v1466h-142v-1466h142z" />
    <glyph glyph-name="P" unicode="P" horiz-adv-x="800" 
d="M769 877v-16t-5.5 -35t-17 -44t-37.5 -35t-63 -16h-153v832h-141v-1563h-276v1660h549q6 0 15.5 -0.5t34.5 -8.5t44 -22t34.5 -45t15.5 -74v-633z" />
    <glyph glyph-name="Q" unicode="Q" horiz-adv-x="892" 
d="M760 97h111v-97h-244h-1h-3h-274h-131h-4q-11 1 -23.5 3t-35 11t-39.5 23.5t-30 44t-13 68.5v1360q0 47 17.5 79.5t44.5 46t44.5 18t33.5 5.5l1 1h4h273h132q1 -1 3 -1q11 -1 23.5 -2.5t35 -10.5t39.5 -24t30 -44t13 -68v-1360q0 -27 -7 -53zM491 97v1466h-34h-108v-1466
h142z" />
    <glyph glyph-name="R" unicode="R" 
d="M769 500h1v-500h-153q-37 0 -63 15t-37.5 36.5t-17 43t-5.5 36.5v15v184h-1v500h-141v-830h-276v1660h549q6 0 15.5 -0.5t34.5 -8.5t44 -22t34.5 -45t15.5 -74v-534v-15.5t-5.5 -35t-16.5 -44.5t-37 -35t-62 -16q36 0 62 -15.5t37 -36.5t16.5 -42.5t5.5 -36.5v-15v-184z
M493 926v637h-141v-637h141z" />
    <glyph glyph-name="S" unicode="S" horiz-adv-x="831" 
d="M639 926q37 0 63 -15t37.5 -36.5t17 -43t5.5 -36.5v-15v-630q0 -40 -13 -69.5t-30.5 -44.5t-39.5 -23.5t-35 -10.5t-23 -2h-3h-405h-3q-10 0 -23 2t-35 10.5t-39.5 23.5t-30.5 44.5t-13 69.5v435v16t5.5 35t17 44t37.5 35t63 16h153v-634h71h70v733h-141h-153
q-37 0 -63 15t-37.5 36.5t-17 43t-5.5 36.5v15v534q0 40 13 69.5t30.5 44.5t39.5 23.5t35 10.5t23 2h3h405h3q10 0 23 -2t35 -10.5t39.5 -23.5t30.5 -44.5t13 -69.5v-337v-16t-5.5 -35t-17 -44t-37.5 -35t-63 -16h-153v536h-70h-71v-637h294z" />
    <glyph glyph-name="T" unicode="T" horiz-adv-x="667" 
d="M613 1660l56 -1v-96h-90h-108v-1563h-276v1563h-108h-90v97h57h273h3h1l1 -1h1h2l1 1h4h273z" />
    <glyph glyph-name="U" unicode="U" 
d="M493 1660h276v-1510q0 -43 -15 -74t-36 -45t-42 -22t-36 -9h-15h-549v1659l276 1v-1563l141 -1v1564z" />
    <glyph glyph-name="U" unicode="&#xdc;" 
d="M493 1660h276v-1510q0 -43 -15 -74t-36 -45t-42 -22t-36 -9h-15h-549v1659l276 1v-1563l141 -1v1564z" />
    <glyph glyph-name="U" unicode="&#xdb;" 
d="M493 1660h276v-1510q0 -43 -15 -74t-36 -45t-42 -22t-36 -9h-15h-549v1659l276 1v-1563l141 -1v1564z" />
    <glyph glyph-name="U" unicode="&#xda;" 
d="M493 1660h276v-1510q0 -43 -15 -74t-36 -45t-42 -22t-36 -9h-15h-549v1659l276 1v-1563l141 -1v1564z" />
    <glyph glyph-name="U" unicode="&#xd9;" 
d="M493 1660h276v-1510q0 -43 -15 -74t-36 -45t-42 -22t-36 -9h-15h-549v1659l276 1v-1563l141 -1v1564z" />
    <glyph glyph-name="V" unicode="V" horiz-adv-x="841" 
d="M614 1660h153v-1510q0 -43 -15 -74t-36 -45t-42 -22t-36 -9h-15h-405q-6 0 -15.5 0.5t-34.5 8.5t-44.5 22t-35 45t-15.5 74v1510h153h1q37 0 63 -15.5t37 -36.5t16.5 -42.5t5.5 -36.5v-15v-260v-1157h71h71v1125v292q1 0 0 8t1.5 21t5.5 28t12 31t21.5 28.5t33.5 21
t48 8.5h1z" />
    <glyph glyph-name="W" unicode="W" horiz-adv-x="1259" 
d="M1055 1660h130v-1510q0 -43 -15 -74t-36 -45t-42 -22t-36 -9h-15h-823q-6 0 -15.5 0.5t-34.5 8.5t-44.5 22t-35 45t-15.5 74v1510h130h146v-1563h71h71v1563h138h138v-1563h71h71v1563h146z" />
    <glyph glyph-name="X" unicode="X" horiz-adv-x="935" 
d="M885 500v-500h-153q-37 0 -63 15t-37.5 36.5t-17 43t-5.5 36.5v15v184v500h-209h-74v-500v-184v-16t-5.5 -35t-17 -44t-37.5 -35t-63 -16h-153v500v184v16t5.5 35t17 44t37.5 35t63 16h70q-36 1 -61 16.5t-36 36.5t-16.5 42.5t-5.5 36.5v14v183v501h153q37 0 63 -15
t37.5 -36.5t17 -43t5.5 -36.5v-15v-184v-404h135v404v184v16t5.5 35t17 44t37.5 35t63 16h153v-501v-183v-15.5t-5.5 -34.5t-16.5 -44t-36 -35t-61 -17h70q37 0 63 -15t37.5 -36.5t17 -43t5.5 -36.5v-15v-184z" />
    <glyph glyph-name="Y" unicode="Y" horiz-adv-x="753" 
d="M720 1660v-501v-183v-16t-5.5 -35t-17 -44t-37.5 -35t-63 -16h-82v-830h-277v830h-82q-37 0 -63 15t-37.5 36.5t-17 43t-5.5 36.5v15v183v501h153q37 0 63 -15t37.5 -36.5t17 -43t5.5 -36.5v-15v-184v-404h135v404v184v16t5.5 35t17 44t37.5 35t63 16h153z" />
    <glyph glyph-name="Y" unicode="&#x178;" horiz-adv-x="753" 
d="M720 1660v-501v-183v-16t-5.5 -35t-17 -44t-37.5 -35t-63 -16h-82v-830h-277v830h-82q-37 0 -63 15t-37.5 36.5t-17 43t-5.5 36.5v15v183v501h153q37 0 63 -15t37.5 -36.5t17 -43t5.5 -36.5v-15v-184v-404h135v404v184v16t5.5 35t17 44t37.5 35t63 16h153z" />
    <glyph glyph-name="Y" unicode="&#xdd;" horiz-adv-x="753" 
d="M720 1660v-501v-183v-16t-5.5 -35t-17 -44t-37.5 -35t-63 -16h-82v-830h-277v830h-82q-37 0 -63 15t-37.5 36.5t-17 43t-5.5 36.5v15v183v501h153q37 0 63 -15t37.5 -36.5t17 -43t5.5 -36.5v-15v-184v-404h135v404v184v16t5.5 35t17 44t37.5 35t63 16h153z" />
    <glyph glyph-name="Z" unicode="Z" horiz-adv-x="1130" 
d="M1019 296q37 0 63 -15t37.5 -36.5t17 -43t5.5 -36.5v-15q0 -47 -17 -79.5t-43 -46t-44 -18.5t-34 -6h-598v1563h-71h-71v-199h-153q-37 0 -63 15t-37.5 36.5t-17 43t-5.5 36.5v15q0 40 13 69.5t30.5 44.5t39.5 23.5t35 10.5t23 2h3h405h3q10 0 23 -2t35.5 -10.5t40 -23.5
t30.5 -44.5t13 -69.5v-1364v-49l184 -1v200h153z" />
    <glyph glyph-name="a" unicode="a" 
d="M769 1286h1v-1286h-277v733h-141v-733h-276v1660h549q6 0 15.5 -0.5t34.5 -8.5t44 -22t34.5 -45t15.5 -74v-224zM493 830v733h-141v-733h141z" />
    <glyph glyph-name="a" unicode="&#xe5;" 
d="M769 1286h1v-1286h-277v733h-141v-733h-276v1660h549q6 0 15.5 -0.5t34.5 -8.5t44 -22t34.5 -45t15.5 -74v-224zM493 830v733h-141v-733h141z" />
    <glyph glyph-name="a" unicode="&#xe4;" 
d="M769 1286h1v-1286h-277v733h-141v-733h-276v1660h549q6 0 15.5 -0.5t34.5 -8.5t44 -22t34.5 -45t15.5 -74v-224zM493 830v733h-141v-733h141z" />
    <glyph glyph-name="a" unicode="&#xe3;" 
d="M769 1286h1v-1286h-277v733h-141v-733h-276v1660h549q6 0 15.5 -0.5t34.5 -8.5t44 -22t34.5 -45t15.5 -74v-224zM493 830v733h-141v-733h141z" />
    <glyph glyph-name="a" unicode="&#xe2;" 
d="M769 1286h1v-1286h-277v733h-141v-733h-276v1660h549q6 0 15.5 -0.5t34.5 -8.5t44 -22t34.5 -45t15.5 -74v-224zM493 830v733h-141v-733h141z" />
    <glyph glyph-name="a" unicode="&#xe1;" 
d="M769 1286h1v-1286h-277v733h-141v-733h-276v1660h549q6 0 15.5 -0.5t34.5 -8.5t44 -22t34.5 -45t15.5 -74v-224zM493 830v733h-141v-733h141z" />
    <glyph glyph-name="a" unicode="&#xe0;" 
d="M769 1286h1v-1286h-277v733h-141v-733h-276v1660h549q6 0 15.5 -0.5t34.5 -8.5t44 -22t34.5 -45t15.5 -74v-224zM493 830v733h-141v-733h141z" />
    <glyph glyph-name="b" unicode="b" 
d="M629 1659q11 -1 23.5 -2.5t35 -10.5t39 -24t29.5 -44t13 -68v-1360q0 -38 -12.5 -67.5t-29 -44t-38.5 -24t-35 -12t-24 -2.5h-1h-4h-273h-132h-2h-142v1659h140v1h4h273v-1h132h4zM493 97v636h-141v-636h33h108zM493 830v733h-33h-108v-733h141z" />
    <glyph glyph-name="c" unicode="c" horiz-adv-x="555" 
d="M349 1563v-1466h34h164v-97h-198h-131h-4q-11 1 -23.5 3t-35 11t-39.5 23.5t-30 44t-13 68.5v1360q0 47 17.5 79.5t44.5 46t44.5 18t33.5 5.5l1 1h4h273l56 -1v-96h-90h-108z" />
    <glyph glyph-name="c" unicode="&#xe7;" horiz-adv-x="555" 
d="M349 1563v-1466h34h164v-97h-198h-131h-4q-11 1 -23.5 3t-35 11t-39.5 23.5t-30 44t-13 68.5v1360q0 47 17.5 79.5t44.5 46t44.5 18t33.5 5.5l1 1h4h273l56 -1v-96h-90h-108z" />
    <glyph glyph-name="d" unicode="d" 
d="M629 1659q11 -1 23.5 -2.5t35 -10.5t39 -24t29.5 -44t13 -68v-1360q0 -38 -12.5 -67.5t-29 -44t-38.5 -24t-35 -12t-24 -2.5h-1h-4h-273h-132h-2h-142v1659h140v1h4h273v-1h132h4zM493 97v1466h-33h-108v-1466h33h108z" />
    <glyph glyph-name="e" unicode="e" horiz-adv-x="561" 
d="M457 1563h-108v-733h142v-97h-142v-636h34h164v-97h-198h-131h-4q-11 1 -23.5 3t-35 11t-39.5 23.5t-30 44t-13 68.5v1360q0 47 17.5 79.5t44.5 46t44.5 18t33.5 5.5l1 1h4h273h56v-97h-90z" />
    <glyph glyph-name="e" unicode="&#xeb;" horiz-adv-x="561" 
d="M457 1563h-108v-733h142v-97h-142v-636h34h164v-97h-198h-131h-4q-11 1 -23.5 3t-35 11t-39.5 23.5t-30 44t-13 68.5v1360q0 47 17.5 79.5t44.5 46t44.5 18t33.5 5.5l1 1h4h273h56v-97h-90z" />
    <glyph glyph-name="e" unicode="&#xea;" horiz-adv-x="561" 
d="M457 1563h-108v-733h142v-97h-142v-636h34h164v-97h-198h-131h-4q-11 1 -23.5 3t-35 11t-39.5 23.5t-30 44t-13 68.5v1360q0 47 17.5 79.5t44.5 46t44.5 18t33.5 5.5l1 1h4h273h56v-97h-90z" />
    <glyph glyph-name="e" unicode="&#xe9;" horiz-adv-x="561" 
d="M457 1563h-108v-733h142v-97h-142v-636h34h164v-97h-198h-131h-4q-11 1 -23.5 3t-35 11t-39.5 23.5t-30 44t-13 68.5v1360q0 47 17.5 79.5t44.5 46t44.5 18t33.5 5.5l1 1h4h273h56v-97h-90z" />
    <glyph glyph-name="e" unicode="&#xe8;" horiz-adv-x="561" 
d="M457 1563h-108v-733h142v-97h-142v-636h34h164v-97h-198h-131h-4q-11 1 -23.5 3t-35 11t-39.5 23.5t-30 44t-13 68.5v1360q0 47 17.5 79.5t44.5 46t44.5 18t33.5 5.5l1 1h4h273h56v-97h-90z" />
    <glyph glyph-name="f" unicode="f" horiz-adv-x="555" 
d="M349 1563v-733h142v-97h-142v-733h-276v1510q0 47 17.5 79.5t44.5 46t44.5 18t33.5 5.5l1 1h4h273l56 -1v-96h-90h-108z" />
    <glyph glyph-name="g" unicode="g" horiz-adv-x="798" 
d="M557 830h210v-680q0 -38 -12.5 -67.5t-29 -44t-38.5 -24t-35 -12t-24 -2.5h-1h-1h-3h-274h-131h-4q-11 1 -23.5 3t-35 11t-39.5 23.5t-30 44t-13 68.5v1360q0 47 17.5 79.5t44.5 46t44.5 18t33.5 5.5l1 1h4h329v-97h-90h-108v-1466h34h108v636h-75v97h33h42h29h37z" />
    <glyph glyph-name="h" unicode="h" horiz-adv-x="845" 
d="M493 1660h277v-1660h-277v733h-141v-733h-276v1660h276v-830h141v830z" />
    <glyph glyph-name="i" unicode="i" horiz-adv-x="428" 
d="M352 0h-276v1660h276v-1660z" />
    <glyph glyph-name="i" unicode="&#xef;" horiz-adv-x="428" 
d="M352 0h-276v1660h276v-1660z" />
    <glyph glyph-name="i" unicode="&#xee;" horiz-adv-x="428" 
d="M352 0h-276v1660h276v-1660z" />
    <glyph glyph-name="i" unicode="&#xed;" horiz-adv-x="428" 
d="M352 0h-276v1660h276v-1660z" />
    <glyph glyph-name="i" unicode="&#xec;" horiz-adv-x="428" 
d="M352 0h-276v1660h276v-1660z" />
    <glyph glyph-name="j" unicode="j" horiz-adv-x="778" 
d="M229 1660h474v-1510q0 -39 -13 -68.5t-30 -44t-39.5 -23.5t-35 -11t-23.5 -3h-3h-132h-273h-4h-1q-11 0 -24.5 2.5t-35.5 12t-38.5 24t-29 44t-12.5 67.5v377h210h37h29v-430h108h34v1466h-108h-90v97z" />
    <glyph glyph-name="k" unicode="k" horiz-adv-x="819" 
d="M769 500h1v-500h-153q-37 0 -63 15t-37.5 36.5t-17 43t-5.5 36.5v15v184h-1v500h-141v-830h-276v1660h276v-734h67v404v184v16t5.5 35t17 44t37.5 35t63 16h153v-501v-183v-15.5t-5.5 -34.5t-16.5 -44t-36 -35t-61 -17h70q37 0 63 -15t37.5 -36.5t17 -43t5.5 -36.5v-15
v-184z" />
    <glyph glyph-name="l" unicode="l" horiz-adv-x="544" 
d="M457 97h90v-97h-56h-273h-4h-1q-11 0 -24.5 2.5t-35.5 12t-38.5 24t-29 44t-12.5 67.5v1510h276v-1563h108z" />
    <glyph glyph-name="m" unicode="m" horiz-adv-x="1261" 
d="M1043 1660q6 0 15.5 -0.5t34.5 -8.5t44 -22t34.5 -45t15.5 -74v-1510h-276v1563h-141v-1563h-147h-130v1563h-141v-1563h-276v1660h967z" />
    <glyph glyph-name="n" unicode="n" 
d="M625 1660q6 0 15.5 -0.5t34.5 -8.5t44 -22t34.5 -45t15.5 -74v-1510h-276v1563h-141v-1563h-276v1660h549z" />
    <glyph glyph-name="n" unicode="&#xf1;" 
d="M625 1660q6 0 15.5 -0.5t34.5 -8.5t44 -22t34.5 -45t15.5 -74v-1510h-276v1563h-141v-1563h-276v1660h549z" />
    <glyph glyph-name="o" unicode="o" horiz-adv-x="841" 
d="M626 1659q11 -1 23.5 -2.5t35 -10.5t39.5 -24t30 -44t13 -68v-1360q0 -38 -12.5 -67.5t-29 -44t-38.5 -24t-35 -12t-24 -2.5h-5h-274h-131h-4q-11 1 -23.5 3t-35 11t-39.5 23.5t-30 44t-13 68.5v1360q0 47 17.5 79.5t44.5 46t44.5 18t33.5 5.5l1 1h4l273 -1h132h3z
M491 97v1466h-142v-1466h142z" />
    <glyph glyph-name="o" unicode="&#xf8;" horiz-adv-x="841" 
d="M626 1659q11 -1 23.5 -2.5t35 -10.5t39.5 -24t30 -44t13 -68v-1360q0 -38 -12.5 -67.5t-29 -44t-38.5 -24t-35 -12t-24 -2.5h-5h-274h-131h-4q-11 1 -23.5 3t-35 11t-39.5 23.5t-30 44t-13 68.5v1360q0 47 17.5 79.5t44.5 46t44.5 18t33.5 5.5l1 1h4l273 -1h132h3z
M491 97v1466h-142v-1466h142z" />
    <glyph glyph-name="o" unicode="&#xf6;" horiz-adv-x="841" 
d="M626 1659q11 -1 23.5 -2.5t35 -10.5t39.5 -24t30 -44t13 -68v-1360q0 -38 -12.5 -67.5t-29 -44t-38.5 -24t-35 -12t-24 -2.5h-5h-274h-131h-4q-11 1 -23.5 3t-35 11t-39.5 23.5t-30 44t-13 68.5v1360q0 47 17.5 79.5t44.5 46t44.5 18t33.5 5.5l1 1h4l273 -1h132h3z
M491 97v1466h-142v-1466h142z" />
    <glyph glyph-name="o" unicode="&#xf5;" horiz-adv-x="841" 
d="M626 1659q11 -1 23.5 -2.5t35 -10.5t39.5 -24t30 -44t13 -68v-1360q0 -38 -12.5 -67.5t-29 -44t-38.5 -24t-35 -12t-24 -2.5h-5h-274h-131h-4q-11 1 -23.5 3t-35 11t-39.5 23.5t-30 44t-13 68.5v1360q0 47 17.5 79.5t44.5 46t44.5 18t33.5 5.5l1 1h4l273 -1h132h3z
M491 97v1466h-142v-1466h142z" />
    <glyph glyph-name="o" unicode="&#xf4;" horiz-adv-x="841" 
d="M626 1659q11 -1 23.5 -2.5t35 -10.5t39.5 -24t30 -44t13 -68v-1360q0 -38 -12.5 -67.5t-29 -44t-38.5 -24t-35 -12t-24 -2.5h-5h-274h-131h-4q-11 1 -23.5 3t-35 11t-39.5 23.5t-30 44t-13 68.5v1360q0 47 17.5 79.5t44.5 46t44.5 18t33.5 5.5l1 1h4l273 -1h132h3z
M491 97v1466h-142v-1466h142z" />
    <glyph glyph-name="o" unicode="&#xf3;" horiz-adv-x="841" 
d="M626 1659q11 -1 23.5 -2.5t35 -10.5t39.5 -24t30 -44t13 -68v-1360q0 -38 -12.5 -67.5t-29 -44t-38.5 -24t-35 -12t-24 -2.5h-5h-274h-131h-4q-11 1 -23.5 3t-35 11t-39.5 23.5t-30 44t-13 68.5v1360q0 47 17.5 79.5t44.5 46t44.5 18t33.5 5.5l1 1h4l273 -1h132h3z
M491 97v1466h-142v-1466h142z" />
    <glyph glyph-name="o" unicode="&#xf2;" horiz-adv-x="841" 
d="M626 1659q11 -1 23.5 -2.5t35 -10.5t39.5 -24t30 -44t13 -68v-1360q0 -38 -12.5 -67.5t-29 -44t-38.5 -24t-35 -12t-24 -2.5h-5h-274h-131h-4q-11 1 -23.5 3t-35 11t-39.5 23.5t-30 44t-13 68.5v1360q0 47 17.5 79.5t44.5 46t44.5 18t33.5 5.5l1 1h4l273 -1h132h3z
M491 97v1466h-142v-1466h142z" />
    <glyph glyph-name="p" unicode="p" horiz-adv-x="800" 
d="M769 877v-16t-5.5 -35t-17 -44t-37.5 -35t-63 -16h-153v832h-141v-1563h-276v1660h549q6 0 15.5 -0.5t34.5 -8.5t44 -22t34.5 -45t15.5 -74v-633z" />
    <glyph glyph-name="q" unicode="q" horiz-adv-x="892" 
d="M760 97h111v-97h-244h-1h-3h-274h-131h-4q-11 1 -23.5 3t-35 11t-39.5 23.5t-30 44t-13 68.5v1360q0 47 17.5 79.5t44.5 46t44.5 18t33.5 5.5l1 1h4h273h132q1 -1 3 -1q11 -1 23.5 -2.5t35 -10.5t39.5 -24t30 -44t13 -68v-1360q0 -27 -7 -53zM491 97v1466h-34h-108v-1466
h142z" />
    <glyph glyph-name="r" unicode="r" 
d="M769 500h1v-500h-153q-37 0 -63 15t-37.5 36.5t-17 43t-5.5 36.5v15v184h-1v500h-141v-830h-276v1660h549q6 0 15.5 -0.5t34.5 -8.5t44 -22t34.5 -45t15.5 -74v-534v-15.5t-5.5 -35t-16.5 -44.5t-37 -35t-62 -16q36 0 62 -15.5t37 -36.5t16.5 -42.5t5.5 -36.5v-15v-184z
M493 926v637h-141v-637h141z" />
    <glyph glyph-name="s" unicode="s" horiz-adv-x="831" 
d="M639 926q37 0 63 -15t37.5 -36.5t17 -43t5.5 -36.5v-15v-630q0 -40 -13 -69.5t-30.5 -44.5t-39.5 -23.5t-35 -10.5t-23 -2h-3h-405h-3q-10 0 -23 2t-35 10.5t-39.5 23.5t-30.5 44.5t-13 69.5v435v16t5.5 35t17 44t37.5 35t63 16h153v-634h71h70v733h-141h-153
q-37 0 -63 15t-37.5 36.5t-17 43t-5.5 36.5v15v534q0 40 13 69.5t30.5 44.5t39.5 23.5t35 10.5t23 2h3h405h3q10 0 23 -2t35 -10.5t39.5 -23.5t30.5 -44.5t13 -69.5v-337v-16t-5.5 -35t-17 -44t-37.5 -35t-63 -16h-153v536h-70h-71v-637h294z" />
    <glyph glyph-name="t" unicode="t" horiz-adv-x="667" 
d="M613 1660l56 -1v-96h-90h-108v-1563h-276v1563h-108h-90v97h57h273h3h1l1 -1h1h2l1 1h4h273z" />
    <glyph glyph-name="u" unicode="u" 
d="M493 1660h276v-1510q0 -43 -15 -74t-36 -45t-42 -22t-36 -9h-15h-549v1659l276 1v-1563l141 -1v1564z" />
    <glyph glyph-name="u" unicode="&#xfc;" 
d="M493 1660h276v-1510q0 -43 -15 -74t-36 -45t-42 -22t-36 -9h-15h-549v1659l276 1v-1563l141 -1v1564z" />
    <glyph glyph-name="u" unicode="&#xfb;" 
d="M493 1660h276v-1510q0 -43 -15 -74t-36 -45t-42 -22t-36 -9h-15h-549v1659l276 1v-1563l141 -1v1564z" />
    <glyph glyph-name="u" unicode="&#xfa;" 
d="M493 1660h276v-1510q0 -43 -15 -74t-36 -45t-42 -22t-36 -9h-15h-549v1659l276 1v-1563l141 -1v1564z" />
    <glyph glyph-name="u" unicode="&#xf9;" 
d="M493 1660h276v-1510q0 -43 -15 -74t-36 -45t-42 -22t-36 -9h-15h-549v1659l276 1v-1563l141 -1v1564z" />
    <glyph glyph-name="v" unicode="v" horiz-adv-x="841" 
d="M614 1660h153v-1510q0 -43 -15 -74t-36 -45t-42 -22t-36 -9h-15h-405q-6 0 -15.5 0.5t-34.5 8.5t-44.5 22t-35 45t-15.5 74v1510h153h1q37 0 63 -15.5t37 -36.5t16.5 -42.5t5.5 -36.5v-15v-260v-1157h71h71v1125v292q1 0 0 8t1.5 21t5.5 28t12 31t21.5 28.5t33.5 21
t48 8.5h1z" />
    <glyph glyph-name="w" unicode="w" horiz-adv-x="1259" 
d="M1055 1660h130v-1510q0 -43 -15 -74t-36 -45t-42 -22t-36 -9h-15h-823q-6 0 -15.5 0.5t-34.5 8.5t-44.5 22t-35 45t-15.5 74v1510h130h146v-1563h71h71v1563h138h138v-1563h71h71v1563h146z" />
    <glyph glyph-name="x" unicode="x" horiz-adv-x="935" 
d="M885 500v-500h-153q-37 0 -63 15t-37.5 36.5t-17 43t-5.5 36.5v15v184v500h-209h-74v-500v-184v-16t-5.5 -35t-17 -44t-37.5 -35t-63 -16h-153v500v184v16t5.5 35t17 44t37.5 35t63 16h70q-36 1 -61 16.5t-36 36.5t-16.5 42.5t-5.5 36.5v14v183v501h153q37 0 63 -15
t37.5 -36.5t17 -43t5.5 -36.5v-15v-184v-404h135v404v184v16t5.5 35t17 44t37.5 35t63 16h153v-501v-183v-15.5t-5.5 -34.5t-16.5 -44t-36 -35t-61 -17h70q37 0 63 -15t37.5 -36.5t17 -43t5.5 -36.5v-15v-184z" />
    <glyph glyph-name="y" unicode="y" horiz-adv-x="753" 
d="M720 1660v-501v-183v-16t-5.5 -35t-17 -44t-37.5 -35t-63 -16h-82v-830h-277v830h-82q-37 0 -63 15t-37.5 36.5t-17 43t-5.5 36.5v15v183v501h153q37 0 63 -15t37.5 -36.5t17 -43t5.5 -36.5v-15v-184v-404h135v404v184v16t5.5 35t17 44t37.5 35t63 16h153z" />
    <glyph glyph-name="y" unicode="&#xff;" horiz-adv-x="753" 
d="M720 1660v-501v-183v-16t-5.5 -35t-17 -44t-37.5 -35t-63 -16h-82v-830h-277v830h-82q-37 0 -63 15t-37.5 36.5t-17 43t-5.5 36.5v15v183v501h153q37 0 63 -15t37.5 -36.5t17 -43t5.5 -36.5v-15v-184v-404h135v404v184v16t5.5 35t17 44t37.5 35t63 16h153z" />
    <glyph glyph-name="y" unicode="&#xfd;" horiz-adv-x="753" 
d="M720 1660v-501v-183v-16t-5.5 -35t-17 -44t-37.5 -35t-63 -16h-82v-830h-277v830h-82q-37 0 -63 15t-37.5 36.5t-17 43t-5.5 36.5v15v183v501h153q37 0 63 -15t37.5 -36.5t17 -43t5.5 -36.5v-15v-184v-404h135v404v184v16t5.5 35t17 44t37.5 35t63 16h153z" />
    <glyph glyph-name="z" unicode="z" horiz-adv-x="1130" 
d="M1019 296q37 0 63 -15t37.5 -36.5t17 -43t5.5 -36.5v-15q0 -47 -17 -79.5t-43 -46t-44 -18.5t-34 -6h-598v1563h-71h-71v-199h-153q-37 0 -63 15t-37.5 36.5t-17 43t-5.5 36.5v15q0 40 13 69.5t30.5 44.5t39.5 23.5t35 10.5t23 2h3h405h3q10 0 23 -2t35.5 -10.5t40 -23.5
t30.5 -44.5t13 -69.5v-1364v-49l184 -1v200h153z" />
    <glyph glyph-name="nonbreakingspace" unicode="&#xa0;" horiz-adv-x="405" 
 />
    <glyph glyph-name="softhyphen" unicode="&#xad;" horiz-adv-x="0" 
 />
    <glyph glyph-name="ae" unicode="&#xe6;" horiz-adv-x="821" 
d="M799 1590v-66h-277v277h66q87 0 149 -62t62 -149zM297 1590v-66h-276v277h66q87 0 148.5 -62t61.5 -149z" />
    <glyph glyph-name="quotesingle.alt1" unicode="&#xf000;" horiz-adv-x="348" 
d="M312 1557v-66h-277v276h66q87 0 149 -61.5t62 -148.5z" />
    </font>
</defs>
</svg>
